<svg width="41" height="40" viewBox="0 0 41 40" fill="none" xmlns="http://www.w3.org/2000/svg">
<path d="M10.7502 6C11.7502 5 11.0002 2 9.31219 2C7.62419 2 7.75019 4 8.75019 4C9.75019 4 9.75019 6 9.75019 7C9.75019 8 10.7502 6 10.7502 6ZM6.56719 7.72C7.56719 6.72 6.81719 3.72 5.12919 3.72C3.44119 3.72 3.56719 5.72 4.56719 5.72C5.56719 5.72 5.56719 7.72 5.56719 8.72C5.56719 9.72 6.56719 7.72 6.56719 7.72Z" fill="#AA8DD8"/>
<path d="M32.9423 34.8561C33.1313 35.6641 34.1693 37.1361 34.9743 36.9471C35.7803 36.7571 36.0513 34.9761 35.8623 34.1701C35.6733 33.3621 34.8643 32.8631 34.0583 33.0531C33.2533 33.2431 32.7523 34.0501 32.9423 34.8561ZM27.5083 35.5051C27.5113 36.3351 28.1893 38.0031 29.0173 38.0001C29.8453 37.9961 30.5113 36.3231 30.5083 35.4941C30.5053 34.6651 29.8313 33.9971 29.0033 33.9991C28.1753 34.0031 27.5053 34.6761 27.5083 35.5051ZM22.2373 33.0591C21.9113 33.8231 21.8723 35.6221 22.6333 35.9491C23.3963 36.2731 24.6703 35.0021 24.9963 34.2391C25.3213 33.4771 24.9683 32.5961 24.2073 32.2691C23.4453 31.9441 22.5643 32.2961 22.2373 33.0591ZM17.2063 22.0191C16.3943 22.1911 14.8983 23.1921 15.0673 24.0021C15.2403 24.8121 17.0123 25.1261 17.8243 24.9551C18.6353 24.7841 19.1533 23.9881 18.9843 23.1781C18.8123 22.3681 18.0193 21.8481 17.2063 22.0191ZM15.1693 17.0191C14.3573 17.1911 12.8613 18.1921 13.0303 19.0021C13.2033 19.8121 14.9753 20.1261 15.7873 19.9551C16.5983 19.7841 17.1163 18.9881 16.9473 18.1781C16.7753 17.3681 15.9813 16.8481 15.1693 17.0191Z" fill="#744EAA"/>
<path d="M30.5791 36C33.41 36 35.505 35.123 35.845 34.973C38.1161 33.963 39.1381 31.304 38.1291 29.034C37.1301 26.784 34.5131 25.759 32.2571 26.72C32.1241 26.77 30.4641 27.369 28.9141 26.648C27.0631 25.787 25.9191 23.339 25.2861 21.439C25.1421 21.009 24.9011 20.165 24.6 19.123C22.7341 12.652 21.7681 10.838 20.6171 9.30299C16.906 4.35199 11.0251 4.00699 8.13405 4.58699C5.69705 5.07399 4.11605 7.44499 4.60405 9.88199C5.09205 12.32 7.46405 13.902 9.90005 13.412C10.0621 13.386 12.1041 13.106 13.3241 14.581C13.9671 15.868 15.4041 19.709 15.9541 21.615C16.3001 22.814 16.5831 23.786 16.7481 24.282C18.5211 29.599 21.4141 33.175 25.3511 34.911C27.2031 35.729 29.0051 36 30.5791 36Z" fill="#9266CC"/>
<path d="M10.0171 8C10.5694 8 11.0171 7.55228 11.0171 7C11.0171 6.44772 10.5694 6 10.0171 6C9.46481 6 9.01709 6.44772 9.01709 7C9.01709 7.55228 9.46481 8 10.0171 8Z" fill="#202024"/>
<path d="M34.2581 34.9641C34.1691 34.9641 34.0781 34.9521 33.9891 34.9281C33.4571 34.7801 33.1451 34.2291 33.2931 33.6971C34.0501 30.9751 32.5231 29.1551 32.5081 29.1371C32.1491 28.7181 32.1961 28.0861 32.6151 27.7271C33.0331 27.3681 33.6661 27.4151 34.0251 27.8341C34.1171 27.9411 36.2591 30.4941 35.2201 34.2311C35.0981 34.6741 34.6951 34.9641 34.2581 34.9641ZM27.0591 34.4011C26.8141 34.4011 26.5691 34.3121 26.3751 34.1311C25.9721 33.7531 25.9511 33.1201 26.3281 32.7171C27.8131 31.1301 27.7811 28.5241 27.7801 28.4971C27.7641 27.9451 28.1991 27.4851 28.7521 27.4691C29.2941 27.4641 29.7651 27.8881 29.7801 28.4411C29.7841 28.5801 29.8531 31.8781 27.7891 34.0851C27.5921 34.2951 27.3251 34.4011 27.0591 34.4011ZM18.5171 25.7051C18.0371 25.7051 17.6131 25.3581 17.5321 24.8681C17.4421 24.3241 17.8101 23.8081 18.3551 23.7191C21.4291 23.2091 23.1291 21.3421 23.1461 21.3231C23.5111 20.9131 24.1441 20.8741 24.5551 21.2391C24.9671 21.6041 25.0081 22.2321 24.6461 22.6451C24.5591 22.7441 22.4901 25.0601 18.6821 25.6911C18.6261 25.7011 18.5711 25.7051 18.5171 25.7051ZM21.4381 30.5621C21.0131 30.5621 20.6191 30.2901 20.4841 29.8641C20.3181 29.3381 20.6101 28.7751 21.1361 28.6091C23.8291 27.7561 25.0161 25.7791 25.0281 25.7591C25.3081 25.2821 25.9201 25.1221 26.3961 25.4021C26.8731 25.6811 27.0321 26.2951 26.7531 26.7701C26.6901 26.8781 25.1581 29.4331 21.7401 30.5141C21.6391 30.5471 21.5371 30.5621 21.4381 30.5621ZM16.8191 19.8921C16.3231 19.8921 15.8921 19.5231 15.8281 19.0171C15.7591 18.4691 16.1471 17.9691 16.6951 17.8991C19.3841 17.5591 21.3521 15.9281 21.3711 15.9111C21.7931 15.5571 22.4241 15.6081 22.7791 16.0301C23.1351 16.4511 23.0841 17.0801 22.6641 17.4371C22.5671 17.5201 20.2441 19.4661 16.9461 19.8831C16.9031 19.8891 16.8611 19.8921 16.8191 19.8921ZM14.9981 15.1251C14.5731 15.1251 14.1791 14.8521 14.0441 14.4241C13.8791 13.8971 14.1711 13.3361 14.6981 13.1701C17.8281 12.1871 18.9511 10.4781 18.9971 10.4061C19.2921 9.9441 19.9081 9.8011 20.3721 10.0941C20.8371 10.3861 20.9831 10.9931 20.6961 11.4601C20.6361 11.5571 19.1901 13.8561 15.2971 15.0791C15.1981 15.1101 15.0971 15.1251 14.9981 15.1251Z" fill="#744EAA"/>
</svg>
