<svg width="41" height="40" viewBox="0 0 41 40" fill="none" xmlns="http://www.w3.org/2000/svg">
<path d="M31.5 13.92C31.5 20.359 26.5 21.359 26.5 27.36C26.5 30.458 23.377 30.719 21 30.719C18.947 30.719 14.414 29.94 14.414 27.358C14.414 21.36 9.5 20.36 9.5 13.92C9.5 7.889 14.785 3 20.583 3C26.383 3 31.5 7.889 31.5 13.92Z" fill="#FFD983"/>
<path d="M24.667 35.36C24.667 36.188 22.433 37.86 20.5 37.86C18.567 37.86 16.333 36.188 16.333 35.36C16.333 34.532 18.566 34.86 20.5 34.86C22.433 34.86 24.667 34.532 24.667 35.36Z" fill="#CCD6DD"/>
<path d="M25.2068 13.1531C24.8158 12.7621 24.1838 12.7621 23.7928 13.1531L20.4998 16.4461L17.2068 13.1531C16.8158 12.7621 16.1838 12.7621 15.7928 13.1531C15.4018 13.5441 15.4018 14.1761 15.7928 14.5671L19.4998 18.2741V28.8601C19.4998 29.4131 19.9478 29.8601 20.4998 29.8601C21.0518 29.8601 21.4998 29.4131 21.4998 28.8601V18.2741L25.2068 14.5671C25.5978 14.1761 25.5978 13.5441 25.2068 13.1531Z" fill="#FFCC4D"/>
<path d="M26.5 33.8601C26.5 34.9641 25.604 35.8601 24.5 35.8601H16.5C15.396 35.8601 14.5 34.9641 14.5 33.8601V27.8601H26.5V33.8601Z" fill="#99AAB5"/>
<path d="M14.4988 34.86C14.0188 34.86 13.5948 34.513 13.5138 34.024C13.4228 33.48 13.7908 32.964 14.3358 32.874L26.3358 30.874C26.8798 30.776 27.3958 31.151 27.4858 31.696C27.5768 32.24 27.2088 32.756 26.6638 32.846L14.6638 34.846C14.6088 34.856 14.5528 34.86 14.4988 34.86ZM14.4988 30.86C14.0188 30.86 13.5948 30.513 13.5138 30.024C13.4228 29.48 13.7908 28.964 14.3358 28.874L26.3358 26.874C26.8798 26.777 27.3958 27.151 27.4858 27.696C27.5768 28.24 27.2088 28.756 26.6638 28.846L14.6638 30.846C14.6088 30.856 14.5528 30.86 14.4988 30.86Z" fill="#CCD6DD"/>
</svg>
