<svg width="41" height="40" viewBox="0 0 41 40" fill="none" xmlns="http://www.w3.org/2000/svg">
<path d="M38.167 14.875C38.167 11.009 35.033 7.875 31.167 7.875C30 7.875 28.902 8.165 27.935 8.669C25.853 5.842 22.51 4 18.73 4C13.598 4 9.25499 7.38 7.80699 12.036C5.14899 12.653 3.16699 15.03 3.16699 17.875C3.16699 20.854 5.34099 23.32 8.18799 23.788C8.40399 27.737 11.665 30.875 15.667 30.875C17.843 30.875 19.797 29.942 21.167 28.462C22.537 29.942 24.49 30.875 26.667 30.875C30.81 30.875 34.167 27.518 34.167 23.375C34.167 22.665 34.062 21.981 33.878 21.33C36.397 20.271 38.167 17.78 38.167 14.875Z" fill="#85C8F8"/>
<path d="M7.16699 36.875C8.82385 36.875 10.167 35.5319 10.167 33.875C10.167 32.2181 8.82385 30.875 7.16699 30.875C5.51014 30.875 4.16699 32.2181 4.16699 33.875C4.16699 35.5319 5.51014 36.875 7.16699 36.875Z" fill="#85C8F8"/>
</svg>
